<?xml version="1.0" encoding="UTF-8"?>
<svg version="1.1" xmlns="http://www.w3.org/2000/svg" width="256" height="256">
<path d="M0 0 C84.48 0 168.96 0 256 0 C256 84.48 256 168.96 256 256 C171.52 256 87.04 256 0 256 C0 171.52 0 87.04 0 0 Z " fill="#EFE4B0" transform="translate(0,0)"/>
<path d="M0 0 C3.59329679 3.68785724 4.30771353 6.75696124 4.5 11.75 C4.15253998 20.80637729 1.09926755 27.82053396 -5.16015625 34.37109375 C-10.3545815 38.9699798 -15.74703373 39.50043999 -22.4140625 39.28125 C-27.34177177 38.74530579 -29.96879327 37.05834375 -33.375 33.5625 C-36.32484135 27.09554013 -35.83268003 20.01396034 -33.875 13.25 C-31.68005636 7.55557075 -28.31013017 2.74668379 -23.4375 -0.9375 C-16.17950078 -4.10124325 -6.62477362 -4.73198116 0 0 Z " fill="#FEFEFC" transform="translate(126,145)"/>
<path d="M0 0 C3.59329679 3.68785724 4.30771353 6.75696124 4.5 11.75 C4.15253998 20.80637729 1.09926755 27.82053396 -5.16015625 34.37109375 C-10.3545815 38.9699798 -15.74703373 39.50043999 -22.4140625 39.28125 C-27.34177177 38.74530579 -29.96879327 37.05834375 -33.375 33.5625 C-36.32484135 27.09554013 -35.83268003 20.01396034 -33.875 13.25 C-31.68005636 7.55557075 -28.31013017 2.74668379 -23.4375 -0.9375 C-16.17950078 -4.10124325 -6.62477362 -4.73198116 0 0 Z " fill="#FEFEFC" transform="translate(126,67)"/>
<path d="M0 0 C2.83439137 -0.10901505 5.66450203 -0.18777904 8.5 -0.25 C9.29148438 -0.28351563 10.08296875 -0.31703125 10.8984375 -0.3515625 C17.7217124 -0.46341947 22.91787109 1.12579248 27.96875 5.8359375 C30.67225887 11.5092099 29.88254278 19.05819073 28.12109375 24.9296875 C25.11958958 31.44780546 21.00475046 36.23478766 14.39453125 39.1484375 C9.91269364 40.272765 5.72327902 40.21502655 1.125 40.125 C0.24585938 40.11597656 -0.63328125 40.10695312 -1.5390625 40.09765625 C-3.6928271 40.07424577 -5.84645014 40.0383801 -8 40 C-7.38761702 32.09632678 -6.07299401 24.40206248 -4.5625 16.625 C-4.34529297 15.46355469 -4.12808594 14.30210937 -3.90429688 13.10546875 C-3.68966797 11.99042969 -3.47503906 10.87539062 -3.25390625 9.7265625 C-3.06127197 8.72189941 -2.8686377 7.71723633 -2.67016602 6.68212891 C-2.04947249 4.1979981 -1.24821594 2.22397362 0 0 Z " fill="#FEFEFC" transform="translate(141,143)"/>
<path d="M0 0 C2.70894767 -0.08144943 5.41541263 -0.14070614 8.125 -0.1875 C8.88554687 -0.21263672 9.64609375 -0.23777344 10.4296875 -0.26367188 C15.37336847 -0.32759878 18.73436658 0.21891074 23 3 C25.52672455 6.79008682 25.44341245 8.49197342 25 13 C23.09010138 18.81650943 20.50057147 22.07416411 15 25 C11.98509443 26.00496852 9.95818308 26.10335303 6.8125 26.0625 C5.91144531 26.05347656 5.01039063 26.04445313 4.08203125 26.03515625 C3.39496094 26.02355469 2.70789063 26.01195313 2 26 C1.86722656 26.92683594 1.73445312 27.85367188 1.59765625 28.80859375 C1.42105469 30.00613281 1.24445313 31.20367187 1.0625 32.4375 C0.88847656 33.63246094 0.71445313 34.82742187 0.53515625 36.05859375 C0 39 0 39 -1 40 C-3.33297433 40.04092937 -5.66705225 40.04241723 -8 40 C-7.44618136 31.87766532 -6.19101577 24.03415589 -4.5625 16.0625 C-4.34529297 14.95326172 -4.12808594 13.84402344 -3.90429688 12.70117188 C-3.68966797 11.63576172 -3.47503906 10.57035156 -3.25390625 9.47265625 C-3.06127197 8.51625244 -2.8686377 7.55984863 -2.67016602 6.57446289 C-2.03890396 4.14945073 -1.21347057 2.18296122 0 0 Z " fill="#FEFEFC" transform="translate(141,65)"/>
<path d="M0 0 C7.59 0 15.18 0 23 0 C22.67 1.98 22.34 3.96 22 6 C16.72 6 11.44 6 6 6 C5.67 8.97 5.34 11.94 5 15 C8.96 15.33 12.92 15.66 17 16 C17 17.65 17 19.3 17 21 C16 22 16 22 13.05859375 22.09765625 C11.86363281 22.08605469 10.66867188 22.07445312 9.4375 22.0625 C7.64119141 22.04896484 7.64119141 22.04896484 5.80859375 22.03515625 C4.88175781 22.02355469 3.95492187 22.01195312 3 22 C2.34 25.96 1.68 29.92 1 34 C5.95 34 10.9 34 16 34 C16 35.65 16 37.3 16 39 C15 40 15 40 12.77514648 40.11352539 C11.81680908 40.10828857 10.85847168 40.10305176 9.87109375 40.09765625 C8.31938477 40.09282227 8.31938477 40.09282227 6.73632812 40.08789062 C5.64771484 40.07951172 4.55910156 40.07113281 3.4375 40.0625 C1.7987793 40.05573242 1.7987793 40.05573242 0.12695312 40.04882812 C-2.58208495 40.03699826 -5.29101599 40.02051543 -8 40 C-7.38761702 32.09632678 -6.07299401 24.40206248 -4.5625 16.625 C-4.34529297 15.46355469 -4.12808594 14.30210937 -3.90429688 13.10546875 C-3.68966797 11.99042969 -3.47503906 10.87539062 -3.25390625 9.7265625 C-3.06127197 8.72189941 -2.8686377 7.71723633 -2.67016602 6.68212891 C-2 4 -2 4 0 0 Z " fill="#FEFEFD" transform="translate(181,143)"/>
<path d="M0 0 C2 1.0625 2 1.0625 3 2.0625 C3.04080783 4.06208364 3.04254356 6.06295254 3 8.0625 C0.00208939 8.0625 -2.51263632 7.87344155 -5.4375 7.4375 C-9.17622182 7.01935348 -11.75338575 6.8980905 -15 9.0625 C-16.29042763 11.32851865 -16.29042763 11.32851865 -17 14.0625 C-17.37125 14.908125 -17.7425 15.75375 -18.125 16.625 C-19.42945333 21.74963808 -19.15319972 26.8026428 -19 32.0625 C-12.93398819 33.71807091 -7.86390979 33.35085504 -2 31.0625 C-2.125 34.375 -2.125 34.375 -3 38.0625 C-7.28541133 41.55849345 -12.04721893 41.57664941 -17.375 41.41015625 C-22.35400226 40.75073482 -24.89805858 38.49502385 -27.875 34.625 C-30.38978765 26.66150577 -29.97248347 19.22283168 -26.5 11.625 C-20.82565684 1.43544316 -11.46589594 -3.58309248 0 0 Z " fill="#FEFDFC" transform="translate(87,142.9375)"/>
<path d="M0 0 C2 1.0625 2 1.0625 3 2.0625 C3.04080783 4.06208364 3.04254356 6.06295254 3 8.0625 C0.00208939 8.0625 -2.51263632 7.87344155 -5.4375 7.4375 C-9.17622182 7.01935348 -11.75338575 6.8980905 -15 9.0625 C-16.29042763 11.32851865 -16.29042763 11.32851865 -17 14.0625 C-17.37125 14.908125 -17.7425 15.75375 -18.125 16.625 C-19.42945333 21.74963808 -19.15319972 26.8026428 -19 32.0625 C-12.93398819 33.71807091 -7.86390979 33.35085504 -2 31.0625 C-2.125 34.375 -2.125 34.375 -3 38.0625 C-7.28541133 41.55849345 -12.04721893 41.57664941 -17.375 41.41015625 C-22.35400226 40.75073482 -24.89805858 38.49502385 -27.875 34.625 C-30.38978765 26.66150577 -29.97248347 19.22283168 -26.5 11.625 C-20.82565684 1.43544316 -11.46589594 -3.58309248 0 0 Z " fill="#FEFDFC" transform="translate(87,64.9375)"/>
<path d="M0 0 C2.64 0 5.28 0 8 0 C9.614202 3.59526809 11.08539752 7.07100003 12.125 10.875 C12.68110322 13.84452363 12.68110322 13.84452363 14 15 C14.63808594 14.00097656 15.27617187 13.00195312 15.93359375 11.97265625 C16.76816273 10.66922829 17.60280177 9.36584519 18.4375 8.0625 C18.85837891 7.40314453 19.27925781 6.74378906 19.71289062 6.06445312 C22.88671875 1.11328125 22.88671875 1.11328125 24 0 C26.67058851 -0.14115161 29.32432238 -0.04247107 32 0 C31.37942898 3.36091435 30.14862956 5.48427355 28.12890625 8.22265625 C27.55462891 9.00833984 26.98035156 9.79402344 26.38867188 10.60351562 C25.78603516 11.41498047 25.18339844 12.22644531 24.5625 13.0625 C23.37598511 14.67815268 22.18977454 16.29402891 21.00390625 17.91015625 C20.21222046 18.97955444 20.21222046 18.97955444 19.40454102 20.07055664 C16.43803911 24.14569389 15.40705049 27.18080013 14.4375 32.125 C13.10063694 38.89936306 13.10063694 38.89936306 12 40 C9.66702567 40.04092937 7.33294775 40.04241723 5 40 C5.21269531 38.38158203 5.21269531 38.38158203 5.4296875 36.73046875 C6.68522185 24.93376027 4.83383029 15.82117528 0.56665039 4.79907227 C0 3 0 3 0 0 Z " fill="#FEFEFC" transform="translate(170,65)"/>
<path d="M0 0 C2.6796875 1.1796875 2.6796875 1.1796875 5 3 C6.82146807 10.03943835 4.94635058 16.83872154 1.41796875 22.99609375 C-0.47047841 25.66489097 -1.87834835 26.95944945 -5 28 C-8.57154907 28.37595253 -10.96832428 28.53706196 -14.18359375 26.86328125 C-16.75563177 24.22486806 -16.53407899 22.44617233 -16.5 18.8125 C-16.26203651 11.44383739 -14.66157132 6.8773744 -9.6875 1.5 C-6.16900883 -0.46380903 -3.9778075 -0.49722594 0 0 Z " fill="#EFE4B1" transform="translate(116,149)"/>
<path d="M0 0 C2.6796875 1.1796875 2.6796875 1.1796875 5 3 C6.82146807 10.03943835 4.94635058 16.83872154 1.41796875 22.99609375 C-0.47047841 25.66489097 -1.87834835 26.95944945 -5 28 C-8.57154907 28.37595253 -10.96832428 28.53706196 -14.18359375 26.86328125 C-16.75563177 24.22486806 -16.53407899 22.44617233 -16.5 18.8125 C-16.26203651 11.44383739 -14.66157132 6.8773744 -9.6875 1.5 C-6.16900883 -0.46380903 -3.9778075 -0.49722594 0 0 Z " fill="#EFE4B1" transform="translate(116,71)"/>
<path d="M0 0 C8.66725664 -0.44070796 8.66725664 -0.44070796 13 3 C15.51063988 6.76595982 15.08172612 8.34684987 14.47265625 12.65234375 C13.2698502 18.62661182 11.21078921 22.52614053 6 26 C3.59454362 27.20272819 2.05003047 27.10071472 -0.625 27.0625 C-1.85089844 27.04896484 -1.85089844 27.04896484 -3.1015625 27.03515625 C-3.72804687 27.02355469 -4.35453125 27.01195312 -5 27 C-3.5670802 17.94731844 -1.83957765 8.97713895 0 0 Z " fill="#EFE4B1" transform="translate(147,149)"/>
<path d="M0 0 C6.0546875 -0.1953125 6.0546875 -0.1953125 8 0 C10 2 10 2 10.25 4.875 C10.0069394 7.9132575 9.69131016 9.50754293 8 12 C4.3558226 14.4294516 2.28758728 14.16179575 -2 14 C-1.85795259 12.41632253 -1.71119847 10.83306682 -1.5625 9.25 C-1.48128906 8.36828125 -1.40007812 7.4865625 -1.31640625 6.578125 C-1.03761535 4.30649548 -0.61209423 2.20148177 0 0 Z " fill="#F0E5B2" transform="translate(147,71)"/>
</svg>
