<?xml version="1.0" encoding="UTF-8"?>
<svg version="1.1" xmlns="http://www.w3.org/2000/svg" width="256" height="256">
<path d="M0 0 C84.48 0 168.96 0 256 0 C256 84.48 256 168.96 256 256 C171.52 256 87.04 256 0 256 C0 171.52 0 87.04 0 0 Z " fill="#526E91" transform="translate(0,0)"/>
<path d="M0 0 C5.754375 -0.12375 5.754375 -0.12375 11.625 -0.25 C12.82334473 -0.28641602 14.02168945 -0.32283203 15.25634766 -0.36035156 C22.93808135 -0.44032931 26.27621703 0.52446923 31.875 5.75 C33.57039034 9.14078068 33.64335829 12.33780664 33 16 C30.87186609 19.95224869 28.27941485 22.95482907 25 26 C25.845625 26.928125 26.69125 27.85625 27.5625 28.8125 C38 40.94391408 38 40.94391408 38 45 C33.72676346 45.91104535 30.23395221 46.19666194 26 45 C21.95186042 41.17327569 19.59407925 35.85081188 17 31 C14.9714169 28.62841973 14.9714169 28.62841973 11 28 C11 33.61 11 39.22 11 45 C7.37 45 3.74 45 0 45 C0 30.15 0 15.3 0 0 Z " fill="#F9FAFB" transform="translate(190,144)"/>
<path d="M0 0 C3.63 0 7.26 0 11 0 C11 15.51 11 31.02 11 47 C7.37 47 3.74 47 0 47 C-0.33 46.34 -0.66 45.68 -1 45 C-1.474375 45.495 -1.94875 45.99 -2.4375 46.5 C-6.23450007 48.72263419 -9.70006876 48.56152948 -14 48 C-18.2269152 46.25410024 -20.01195538 44.07549148 -22 40 C-23.81907308 33.93218281 -24.00664951 27.45612382 -21.375 21.625 C-19.20233187 17.88528553 -17.0046768 15.81343855 -13 14 C-8.23580053 13.36368569 -5.0596319 13.29357873 -1 16 C-0.67 10.72 -0.34 5.44 0 0 Z " fill="#F8F9FA" transform="translate(136,142)"/>
<path d="M0 0 C3.49971822 1.36945496 4.66023133 2.43950569 6.60546875 5.6484375 C8.20396271 9.49019609 8.43328238 12.34986376 8.4375 16.5 C8.45683594 17.7684375 8.47617188 19.036875 8.49609375 20.34375 C7.78442936 25.5887726 5.32497792 28.56145254 1.8125 32.375 C-2.0437082 34.6030314 -5.63631527 34.86649196 -10 34 C-11.32 33.01 -12.64 32.02 -14 31 C-14.33 36.61 -14.66 42.22 -15 48 C-18.3 48 -21.6 48 -25 48 C-25 32.49 -25 16.98 -25 1 C-21.7 1 -18.4 1 -15 1 C-14.67 1.99 -14.34 2.98 -14 4 C-13.360625 3.34 -12.72125 2.68 -12.0625 2 C-7.94690209 -0.68773741 -4.78875011 -0.70525229 0 0 Z " fill="#FBFBFC" transform="translate(140,71)"/>
<path d="M0 0 C3.68380768 1.87393695 6.29298317 4.53127884 8.140625 8.2265625 C9.84229823 13.73674249 9.47616486 19.31369291 7.671875 24.7265625 C4.76354289 28.79822745 1.63653262 31.73834329 -3.203125 33.3515625 C-8.76857991 33.84145103 -13.60993452 34.11970791 -18.703125 31.6640625 C-23.2135387 27.49192983 -25.82451298 24.35611274 -26.40625 18.203125 C-26.5128565 13.13931617 -26.14424513 9.66520536 -23.203125 5.3515625 C-16.83506602 -1.06869368 -8.71563117 -2.56523896 0 0 Z " fill="#F9FAFB" transform="translate(100.203125,156.6484375)"/>
<path d="M0 0 C3.68380768 1.87393695 6.29298317 4.53127884 8.140625 8.2265625 C9.84229823 13.73674249 9.47616486 19.31369291 7.671875 24.7265625 C4.76354289 28.79822745 1.63653262 31.73834329 -3.203125 33.3515625 C-8.76857991 33.84145103 -13.60993452 34.11970791 -18.703125 31.6640625 C-23.2135387 27.49192983 -25.82451298 24.35611274 -26.40625 18.203125 C-26.5128565 13.13931617 -26.14424513 9.66520536 -23.203125 5.3515625 C-16.83506602 -1.06869368 -8.71563117 -2.56523896 0 0 Z " fill="#F9FAFB" transform="translate(100.203125,71.6484375)"/>
<path d="M0 0 C0 3.3 0 6.6 0 10 C-0.639375 9.835 -1.27875 9.67 -1.9375 9.5 C-7.31345533 8.62229301 -12.1197753 8.44289638 -17.375 10 C-21.0238626 12.78008579 -22.02479171 15.59530923 -23 20 C-23.54366451 25.25542361 -22.84195117 28.53407673 -20 33 C-17.02253192 35.7325681 -15.14163574 36.37512884 -11.125 36.25 C-10.25359375 36.22421875 -9.3821875 36.1984375 -8.484375 36.171875 C-5.60944517 35.97298048 -2.82021138 35.59372871 0 35 C0 37.97 0 40.94 0 44 C-6.62761715 47.15540472 -15.61791177 47.54466953 -22.58203125 45.08984375 C-24.61969193 43.87815643 -26.27487683 42.6226406 -28 41 C-28.50015625 40.53078125 -29.0003125 40.0615625 -29.515625 39.578125 C-34.39227886 34.36515018 -35.44529259 28.21806146 -35.24609375 21.328125 C-34.36067168 12.95175114 -30.84118607 6.98131603 -24.39453125 1.6796875 C-18.48277199 -2.05268148 -6.32881731 -3.16440865 0 0 Z " fill="#F9FAFB" transform="translate(69,144)"/>
<path d="M0 0 C0 3.3 0 6.6 0 10 C-0.639375 9.835 -1.27875 9.67 -1.9375 9.5 C-7.31345533 8.62229301 -12.1197753 8.44289638 -17.375 10 C-21.0238626 12.78008579 -22.02479171 15.59530923 -23 20 C-23.54366451 25.25542361 -22.84195117 28.53407673 -20 33 C-17.02253192 35.7325681 -15.14163574 36.37512884 -11.125 36.25 C-10.25359375 36.22421875 -9.3821875 36.1984375 -8.484375 36.171875 C-5.60944517 35.97298048 -2.82021138 35.59372871 0 35 C0 37.97 0 40.94 0 44 C-6.62761715 47.15540472 -15.61791177 47.54466953 -22.58203125 45.08984375 C-24.61969193 43.87815643 -26.27487683 42.6226406 -28 41 C-28.50015625 40.53078125 -29.0003125 40.0615625 -29.515625 39.578125 C-34.39227886 34.36515018 -35.44529259 28.21806146 -35.24609375 21.328125 C-34.36067168 12.95175114 -30.84118607 6.98131603 -24.39453125 1.6796875 C-18.48277199 -2.05268148 -6.32881731 -3.16440865 0 0 Z " fill="#F9FAFB" transform="translate(69,59)"/>
<path d="M0 0 C3.63 0 7.26 0 11 0 C11.42152344 1.35996094 11.84304687 2.71992187 12.27734375 4.12109375 C12.83056595 5.89328013 13.38396025 7.66541279 13.9375 9.4375 C14.21529297 10.33533203 14.49308594 11.23316406 14.77929688 12.15820312 C15.18051758 13.43920898 15.18051758 13.43920898 15.58984375 14.74609375 C15.83597412 15.53685303 16.08210449 16.3276123 16.33569336 17.14233398 C16.84686051 18.98943308 16.84686051 18.98943308 18 20 C19.98 13.4 21.96 6.8 24 0 C27.3 0 30.6 0 34 0 C33.37273947 4.70332339 32.08251394 8.95365349 30.41796875 13.375 C30.16251785 14.06255371 29.90706696 14.75010742 29.64387512 15.45849609 C29.10446116 16.90500599 28.56223109 18.35046854 28.01733398 19.79492188 C27.19126625 21.98999211 26.37935484 24.18994861 25.56835938 26.390625 C25.03991432 27.80240247 24.51064439 29.21387152 23.98046875 30.625 C23.74176559 31.2751709 23.50306244 31.9253418 23.25712585 32.59521484 C21.20835822 37.96852862 18.50585767 43.27776975 14 47 C11.15785932 47.94738023 9.32391609 48.13460559 6.375 48.125 C5.18003906 48.12886719 5.18003906 48.12886719 3.9609375 48.1328125 C2 48 2 48 1 47 C0.85884839 44.32941149 0.95752893 41.67567762 1 39 C3.64 39 6.28 39 9 39 C11.04131012 35.99807335 11.14259819 33.80130745 10.57250977 30.27172852 C9.26419347 25.08030712 6.99885042 20.17796015 4.9375 15.25 C4.00445969 13.00713913 3.07585162 10.76242769 2.15234375 8.515625 C1.73976318 7.52852539 1.32718262 6.54142578 0.90209961 5.52441406 C0 3 0 3 0 0 Z " fill="#F8F9FB" transform="translate(151,72)"/>
<path d="M0 0 C3.38795887 2.88972962 5.70953643 5.56610928 7.125 9.8125 C7.125 12.7825 7.125 15.7525 7.125 18.8125 C0.195 18.8125 -6.735 18.8125 -13.875 18.8125 C-11.52579137 23.95712031 -11.52579137 23.95712031 -7.875 24.8125 C-3.70476082 24.9669533 0.06646318 24.79638771 4.125 23.8125 C4.125 26.1225 4.125 28.4325 4.125 30.8125 C-1.25328307 34.1572034 -7.79166411 33.39186532 -13.875 32.8125 C-17.95182406 31.37187365 -20.63543536 28.46652652 -22.875 24.8125 C-24.51114885 19.90405346 -24.37025341 14.93464148 -23.875 9.8125 C-22.125 6.3125 -22.125 6.3125 -19.875 3.8125 C-19.194375 3.049375 -18.51375 2.28625 -17.8125 1.5 C-13.14375216 -2.56632876 -5.48592141 -2.26592406 0 0 Z " fill="#F9FAFB" transform="translate(176.875,157.1875)"/>
<path d="M0 0 C3.625 0.25 3.625 0.25 5.296875 1.4921875 C7.6999978 4.67279121 7.76154337 8.35851387 7.625 12.25 C6.48348113 14.74058663 5.5353944 16.3396056 3.625 18.25 C0.25 18.5625 0.25 18.5625 -3.375 18.25 C-6.02868076 16.03859936 -6.38179955 14.22377316 -7.25 10.875 C-7.39285716 6.73214225 -6.5330789 4.73612745 -4.375 1.25 C-3.375 0.25 -3.375 0.25 0 0 Z " fill="#567294" transform="translate(91.375,163.75)"/>
<path d="M0 0 C3.625 0.25 3.625 0.25 5.296875 1.4921875 C7.6999978 4.67279121 7.76154337 8.35851387 7.625 12.25 C6.48348113 14.74058663 5.5353944 16.3396056 3.625 18.25 C0.25 18.5625 0.25 18.5625 -3.375 18.25 C-6.02868076 16.03859936 -6.38179955 14.22377316 -7.25 10.875 C-7.39285716 6.73214225 -6.5330789 4.73612745 -4.375 1.25 C-3.375 0.25 -3.375 0.25 0 0 Z " fill="#567294" transform="translate(91.375,78.75)"/>
<path d="M0 0 C3.0625 0.5 3.0625 0.5 5.4375 2 C7.67770766 5.44647332 7.73559392 8.55535659 7.0625 12.5 C5.90617254 14.86293002 4.91266245 16.64983755 3.0625 18.5 C-2.27726089 18.96432703 -2.27726089 18.96432703 -4.609375 17.32421875 C-6.42228099 14.83413906 -6.33737534 13.11802094 -6.3125 10.0625 C-6.32023437 9.11503906 -6.32796875 8.16757813 -6.3359375 7.19140625 C-5.69571817 2.86678743 -4.373406 0.74440953 0 0 Z " fill="#567193" transform="translate(129.9375,163.5)"/>
<path d="M0 0 C1.875 1.4375 1.875 1.4375 3 4 C3.55320105 8.78562811 3.59756905 12.81451771 1 17 C-1.86120256 18.43060128 -3.84010585 18.38692581 -7 18 C-9.8051498 15.10134521 -10.2381996 12.33350131 -10.4375 8.4375 C-10.31723465 5.30014305 -10.09889766 4.15595401 -8.375 1.4375 C-5.29288388 -0.42799134 -3.54177048 -0.60285455 0 0 Z " fill="#547092" transform="translate(135,79)"/>
<path d="M0 0 C7.3028169 -0.35915493 7.3028169 -0.35915493 10.0625 1.0625 C11.59987081 4.23973301 10.8466463 6.67388953 10 10 C6.3558226 12.4294516 4.28758728 12.16179575 0 12 C0 8.04 0 4.08 0 0 Z " fill="#546F92" transform="translate(201,152)"/>
<path d="M0 0 C2 3 2 3 2 7 C-1.63 7 -5.26 7 -9 7 C-8.39816251 4.97954558 -7.72693904 2.97888961 -7 1 C-4.46578263 -0.26710868 -2.80561762 -0.28056176 0 0 Z " fill="#546F92" transform="translate(172,163)"/>
</svg>
