<?xml version="1.0" encoding="UTF-8"?>
<svg version="1.1" xmlns="http://www.w3.org/2000/svg" width="256" height="256">
<path d="M0 0 C84.48 0 168.96 0 256 0 C256 84.48 256 168.96 256 256 C171.52 256 87.04 256 0 256 C0 171.52 0 87.04 0 0 Z " fill="#FEFEFE" transform="translate(0,0)"/>
<path d="M0 0 C84.48 0 168.96 0 256 0 C256 84.48 256 168.96 256 256 C171.52 256 87.04 256 0 256 C0 171.52 0 87.04 0 0 Z M10 9 C10 87.87 10 166.74 10 248 C87.88 248 165.76 248 246 248 C246 169.13 246 90.26 246 9 C168.12 9 90.24 9 10 9 Z " fill="#000000" transform="translate(0,0)"/>
<path d="M0 0 C0.81831802 -0.00570007 1.63663605 -0.01140015 2.47975159 -0.01727295 C4.22078147 -0.02674502 5.96182946 -0.03326564 7.70288086 -0.03710938 C10.33675864 -0.04672119 12.96982439 -0.07768256 15.60351562 -0.109375 C29.85129903 -0.19998957 40.8580071 1.5167589 51.69140625 11.453125 C58.56055606 18.63593462 60.28191589 27.59420792 60.15234375 37.234375 C59.44299807 47.2177586 55.95021618 55.70622175 48.45703125 62.43359375 C36.37306689 71.80378646 24.97614906 71.60656896 10.31640625 71.390625 C8.53126128 71.3755516 6.74610401 71.36186789 4.9609375 71.34960938 C0.62078596 71.31681245 -3.71876592 71.26517709 -8.05859375 71.203125 C-8.05859375 67.203125 -8.05859375 67.203125 -7.07575989 64.79820251 C-5.94297596 61.90815143 -5.79897812 59.77656182 -5.78393555 56.68188477 C-5.77440353 55.60048721 -5.76487152 54.51908966 -5.75505066 53.40492249 C-5.75596207 52.24649338 -5.75687347 51.08806427 -5.7578125 49.89453125 C-5.75352737 48.69505356 -5.74924225 47.49557587 -5.74482727 46.25975037 C-5.7390895 43.7255008 -5.73857962 41.19123477 -5.74291992 38.65698242 C-5.74607925 34.78340518 -5.72261468 30.9105922 -5.69726562 27.03710938 C-5.69499251 24.57291763 -5.69428919 22.10872383 -5.6953125 19.64453125 C-5.68610275 18.48812637 -5.67689301 17.3317215 -5.66740417 16.14027405 C-5.70068266 10.34586214 -5.80803561 6.09319784 -9.05859375 1.203125 C-7.01956508 -0.83590367 -2.802262 0.0149864 0 0 Z " fill="#010101" transform="translate(137.05859375,151.796875)"/>
<path d="M0 0 C0.72953384 -0.00807175 1.45906769 -0.01614349 2.21070862 -0.02445984 C3.76341361 -0.03832632 5.31614941 -0.04903695 6.86889648 -0.05688477 C9.21334696 -0.07392397 11.55632174 -0.11776012 13.90039062 -0.16210938 C31.94083023 -0.35203792 31.94083023 -0.35203792 38.76928711 6.0769043 C43.33287677 11.14163743 44.18355153 14.62048246 44.0859375 21.41796875 C43.59806554 26.52294786 41.70958232 29.46419869 38.015625 32.92578125 C30.59273828 38.92174412 23.15868191 39.90448001 13.81640625 39.23828125 C13.15640625 38.90828125 12.49640625 38.57828125 11.81640625 38.23828125 C11.78730856 42.30076614 11.76957451 46.36322411 11.75390625 50.42578125 C11.74552734 51.57626953 11.73714844 52.72675781 11.72851562 53.91210938 C11.72529297 55.02392578 11.72207031 56.13574219 11.71875 57.28125 C11.71351318 58.3024292 11.70827637 59.3236084 11.70288086 60.37573242 C11.81121158 63.10729741 12.19933757 65.57997499 12.81640625 68.23828125 C14.30140625 68.73328125 14.30140625 68.73328125 15.81640625 69.23828125 C15.48640625 69.89828125 15.15640625 70.55828125 14.81640625 71.23828125 C7.55640625 71.23828125 0.29640625 71.23828125 -7.18359375 71.23828125 C-7.18359375 68.23828125 -7.18359375 68.23828125 -6.20075989 66.40023804 C-4.92236429 63.68304569 -4.92295288 61.64557913 -4.90893555 58.64697266 C-4.89940353 57.52545807 -4.88987152 56.40394348 -4.88005066 55.2484436 C-4.88096207 54.04110565 -4.88187347 52.8337677 -4.8828125 51.58984375 C-4.87852737 50.34455902 -4.87424225 49.09927429 -4.86982727 47.81625366 C-4.86408339 45.18172097 -4.86264879 42.54757996 -4.86791992 39.91308594 C-4.87255763 37.21662754 -4.86561724 34.5206192 -4.84741211 31.82421875 C-4.82290448 27.93345411 -4.81875734 24.04317599 -4.8203125 20.15234375 C-4.81110275 18.94905426 -4.80189301 17.74576477 -4.79240417 16.50601196 C-4.83522624 8.40783215 -4.83522624 8.40783215 -8.18359375 1.23828125 C-6.24923156 -0.69608094 -2.63932003 0.02756946 0 0 Z " fill="#010101" transform="translate(137.18359375,33.76171875)"/>
<path d="M0 0 C1.41249023 -0.01836914 1.41249023 -0.01836914 2.85351562 -0.03710938 C11.50189891 -0.05541929 11.50189891 -0.05541929 15.5625 2.1875 C17.30354353 3.92854353 16.77561272 6.26114021 16.8125 8.625 C16.83828125 9.61371094 16.8640625 10.60242188 16.890625 11.62109375 C16.78234375 12.46800781 16.6740625 13.31492188 16.5625 14.1875 C15.5725 14.8475 14.5825 15.5075 13.5625 16.1875 C11.96124951 15.47204766 10.36240305 14.75064119 8.77734375 14 C0.56963993 10.98906103 -8.75931893 11.58626553 -16.62890625 15.19140625 C-22.18382129 18.29111022 -25.10022163 21.88652361 -27.015625 28.046875 C-28.70763847 36.63227669 -27.46268516 43.57359554 -23.4375 51.1875 C-23.1075 52.1775 -22.7775 53.1675 -22.4375 54.1875 C-20.63516052 55.31854747 -20.63516052 55.31854747 -18.4375 56.1875 C-17.70273437 56.52910156 -16.96796875 56.87070313 -16.2109375 57.22265625 C-2.25935439 63.19866009 8.3525516 60.69170571 22.0703125 55.2109375 C22.89273438 54.87320313 23.71515625 54.53546875 24.5625 54.1875 C25.5625 57.1875 25.5625 57.1875 24.15625 60.47265625 C23.46969133 61.73799984 22.77124517 62.99694873 22.0625 64.25 C21.73507813 64.88744141 21.40765625 65.52488281 21.0703125 66.18164062 C19.17474502 69.56301945 18.06397312 70.96064311 14.4453125 72.59765625 C0.03339938 74.78699114 -16.40778998 75.03621944 -28.8125 66.4375 C-36.93199906 59.58560206 -42.68321762 52.39595117 -43.81640625 41.56640625 C-44.18125532 29.87946661 -41.47372626 20.79646399 -33.4375 12.1875 C-23.60548574 2.95937145 -13.13264815 0.00895204 0 0 Z " fill="#010101" transform="translate(76.4375,150.8125)"/>
<path d="M0 0 C1.41249023 -0.01836914 1.41249023 -0.01836914 2.85351562 -0.03710938 C11.50189891 -0.05541929 11.50189891 -0.05541929 15.5625 2.1875 C17.30354353 3.92854353 16.77561272 6.26114021 16.8125 8.625 C16.83828125 9.61371094 16.8640625 10.60242188 16.890625 11.62109375 C16.78234375 12.46800781 16.6740625 13.31492187 16.5625 14.1875 C15.5725 14.8475 14.5825 15.5075 13.5625 16.1875 C11.96124951 15.47204766 10.36240305 14.75064119 8.77734375 14 C0.56963993 10.98906103 -8.75931893 11.58626553 -16.62890625 15.19140625 C-22.18382129 18.29111022 -25.10022163 21.88652361 -27.015625 28.046875 C-28.70763847 36.63227669 -27.46268516 43.57359554 -23.4375 51.1875 C-23.1075 52.1775 -22.7775 53.1675 -22.4375 54.1875 C-20.63516052 55.31854747 -20.63516052 55.31854747 -18.4375 56.1875 C-17.70273437 56.52910156 -16.96796875 56.87070313 -16.2109375 57.22265625 C-2.25935439 63.19866009 8.3525516 60.69170571 22.0703125 55.2109375 C22.89273438 54.87320313 23.71515625 54.53546875 24.5625 54.1875 C25.5625 57.1875 25.5625 57.1875 24.15625 60.47265625 C23.46969133 61.73799984 22.77124517 62.99694873 22.0625 64.25 C21.73507813 64.88744141 21.40765625 65.52488281 21.0703125 66.18164062 C19.17474502 69.56301945 18.06397312 70.96064311 14.4453125 72.59765625 C0.03339938 74.78699114 -16.40778998 75.03621944 -28.8125 66.4375 C-36.93199906 59.58560206 -42.68321762 52.39595117 -43.81640625 41.56640625 C-44.18125532 29.87946661 -41.47372626 20.79646399 -33.4375 12.1875 C-23.60548574 2.95937145 -13.13264815 0.00895204 0 0 Z " fill="#010101" transform="translate(76.4375,32.8125)"/>
<path d="M0 0 C5.69265757 2.04018734 9.619679 5.00318213 12.84765625 10.10546875 C16.11326031 19.1339035 15.40757486 27.2154231 11.91015625 36.04296875 C8.8469838 41.55667916 3.55817688 43.73159725 -2.08984375 46.04296875 C-7.53790251 47.45946403 -13.72147821 47.83242393 -19.08984375 46.04296875 C-19.08984375 30.53296875 -19.08984375 15.02296875 -19.08984375 -0.95703125 C-13.3846075 -3.80964938 -5.82483146 -1.56850708 0 0 Z " fill="#FFFFFF" transform="translate(166.08984375,164.95703125)"/>
<path d="M0 0 C2.23375255 1.45655884 3.71913429 2.77420609 4.91796875 5.171875 C5.29739158 9.72494893 5.40900519 12.18980213 3.35546875 16.296875 C-1.00198784 21.43643918 -5.92433428 26.67387787 -12.88671875 27.5078125 C-19.25891817 27.58888374 -23.29427264 27.57143697 -28.08203125 23.171875 C-29.69214183 19.95165384 -29.53982874 16.66421585 -29.08203125 13.171875 C-23.73038385 2.4685802 -11.90347473 -4.73459032 0 0 Z " fill="#010101" transform="translate(112.08203125,172.828125)"/>
<path d="M0 0 C2.23375255 1.45655884 3.71913429 2.77420609 4.91796875 5.171875 C5.29739158 9.72494893 5.40900519 12.18980213 3.35546875 16.296875 C-1.00198784 21.43643918 -5.92433428 26.67387787 -12.88671875 27.5078125 C-19.25891817 27.58888374 -23.29427264 27.57143697 -28.08203125 23.171875 C-29.69214183 19.95165384 -29.53982874 16.66421585 -29.08203125 13.171875 C-23.73038385 2.4685802 -11.90347473 -4.73459032 0 0 Z " fill="#010101" transform="translate(115.08203125,55.828125)"/>
<path d="M0 0 C1.50046875 0.00386719 1.50046875 0.00386719 3.03125 0.0078125 C4.0315625 0.00523438 5.031875 0.00265625 6.0625 0 C8.53125 0.1328125 8.53125 0.1328125 9.53125 1.1328125 C9.9244148 2.81165488 10.27210452 4.50131295 10.59375 6.1953125 C10.77035156 7.11441406 10.94695312 8.03351562 11.12890625 8.98046875 C11.32806641 10.04587891 11.32806641 10.04587891 11.53125 11.1328125 C12.34767254 9.86449557 13.15924105 8.59305319 13.96875 7.3203125 C14.42121094 6.61261719 14.87367188 5.90492187 15.33984375 5.17578125 C16.67211339 3.05146698 16.67211339 3.05146698 17.53125 0.1328125 C20.83125 0.1328125 24.13125 0.1328125 27.53125 0.1328125 C28.02625 1.6178125 28.02625 1.6178125 28.53125 3.1328125 C27.08203125 5.33984375 27.08203125 5.33984375 24.84375 7.9453125 C24.01746094 8.91726562 23.19117188 9.88921875 22.33984375 10.890625 C21.66091064 11.67421387 21.66091064 11.67421387 20.96826172 12.47363281 C19.47020104 14.20329988 17.98599999 15.94413822 16.50390625 17.6875 C13.97352749 20.65985585 11.42607645 23.61698718 8.87353516 26.5703125 C7.70032871 27.9359948 6.54221343 29.31461211 5.38671875 30.6953125 C-0.52126025 37.69736168 -0.52126025 37.69736168 -4.46875 39.1328125 C-8.15038064 39.35736586 -11.78596535 39.30695468 -15.46875 39.1328125 C-15.46875 35.1328125 -15.46875 35.1328125 -13.40625 32.9453125 C-10.46875 31.1328125 -10.46875 31.1328125 -6.84375 30.6328125 C-3.48205426 30.46792917 -3.48205426 30.46792917 -1.73291016 28.46557617 C-0.07670879 25.40937608 -0.37195133 23.72745155 -0.8671875 20.30859375 C-1.01671875 19.19806641 -1.16625 18.08753906 -1.3203125 16.94335938 C-1.49304688 15.78900391 -1.66578125 14.63464844 -1.84375 13.4453125 C-2.16851858 11.15036577 -2.48907376 8.85481741 -2.8046875 6.55859375 C-2.95470215 5.54192627 -3.1047168 4.52525879 -3.25927734 3.4777832 C-3.32840332 2.70394287 -3.3975293 1.93010254 -3.46875 1.1328125 C-2.46875 0.1328125 -2.46875 0.1328125 0 0 Z " fill="#010101" transform="translate(190.46875,49.8671875)"/>
<path d="M0 0 C3.25 1.9375 3.25 1.9375 5 5 C5.48180821 8.07086553 5.5714128 10.93843035 5 14 C3 16 3 16 1.12060547 16.22705078 C0.37697754 16.21657715 -0.36665039 16.20610352 -1.1328125 16.1953125 C-1.93847656 16.18886719 -2.74414062 16.18242187 -3.57421875 16.17578125 C-4.41597656 16.15902344 -5.25773437 16.14226562 -6.125 16.125 C-7.39923828 16.11146484 -7.39923828 16.11146484 -8.69921875 16.09765625 C-10.79959884 16.07405647 -12.89983444 16.03818483 -15 16 C-14.67 16.99 -14.34 17.98 -14 19 C-9.74433453 20.16063604 -6.3164922 19.76173392 -2 19 C-1.34 19.99 -0.68 20.98 0 22 C-2.9307238 25.58081163 -5.5187467 27.72984586 -10.1484375 28.57421875 C-19.72245826 28.89189221 -19.72245826 28.89189221 -23.75 25.625 C-26.50720484 22.40826102 -27.23066449 21.01254423 -27 16.875 C-26.1762113 10.31637455 -22.20093084 6.77831406 -17.40234375 2.61328125 C-12.23049598 -1.00828292 -6.0616657 -0.96162402 0 0 Z " fill="#010101" transform="translate(227,173)"/>
<path d="M0 0 C10.25531915 0 10.25531915 0 15 3 C17.55921006 6.83881508 18.36310912 9.64867917 17.5 14.125 C16.17127641 18.18979347 14.54341647 20.46898824 11 23 C5.555 24.485 5.555 24.485 0 26 C0 17.42 0 8.84 0 0 Z " fill="#FFFFFF" transform="translate(148,44)"/>
<path d="M0 0 C1.33991552 3.04526254 0.89859313 4.34597638 -0.0625 7.625 C-2 11 -2 11 -5.1875 12.4375 C-6.115625 12.623125 -7.04375 12.80875 -8 13 C-8.99 12.01 -9.98 11.02 -11 10 C-10.60246179 8.53633658 -10.18118616 7.0791065 -9.75 5.625 C-9.51796875 4.81289062 -9.2859375 4.00078125 -9.046875 3.1640625 C-8 1 -8 1 -6.03125 -0.3125 C-3.6097934 -1.13206993 -2.37452495 -0.84804462 0 0 Z " fill="#FFFFFF" transform="translate(105,180)"/>
<path d="M0 0 C1.33991552 3.04526254 0.89859313 4.34597638 -0.0625 7.625 C-2 11 -2 11 -5.1875 12.4375 C-6.115625 12.623125 -7.04375 12.80875 -8 13 C-8.99 12.01 -9.98 11.02 -11 10 C-10.60246179 8.53633658 -10.18118616 7.0791065 -9.75 5.625 C-9.51796875 4.81289062 -9.2859375 4.00078125 -9.046875 3.1640625 C-8 1 -8 1 -6.03125 -0.3125 C-3.6097934 -1.13206993 -2.37452495 -0.84804462 0 0 Z " fill="#FFFFFF" transform="translate(108,63)"/>
<path d="M0 0 C0 0.66 0 1.32 0 2 C-3.3 2 -6.6 2 -10 2 C-9 0 -9 0 -7.25 -0.6875 C-4.60760177 -1.05449975 -2.57327078 -0.64331769 0 0 Z " fill="#727272" transform="translate(223,181)"/>
</svg>
