<?xml version="1.0" encoding="UTF-8"?>
<svg version="1.1" xmlns="http://www.w3.org/2000/svg" width="256" height="256">
<path d="M0 0 C84.48 0 168.96 0 256 0 C256 84.48 256 168.96 256 256 C171.52 256 87.04 256 0 256 C0 171.52 0 87.04 0 0 Z " fill="#FEFEFE" transform="translate(0,0)"/>
<path d="M0 0 C5.22864743 -0.07476069 10.45697628 -0.12888763 15.68603516 -0.16479492 C17.46082996 -0.17978093 19.23558837 -0.20017682 21.01025391 -0.22631836 C34.81581084 -0.42442849 47.36856775 -0.2327918 57.9453125 9.85546875 C65.12283033 17.61859996 67.33178873 25.54931916 67.21875 36.01953125 C66.39628856 47.22556837 61.91914969 55.02114501 53.4765625 62.31640625 C43.12061927 70.46016442 30.84022039 69.37111775 18.375 69.1875 C16.58985503 69.1724266 14.80469776 69.15874289 13.01953125 69.14648438 C8.67937971 69.11368745 4.33982783 69.06205209 0 69 C0.309375 68.4225 0.61875 67.845 0.9375 67.25 C2.78638084 63.33472292 3.13014709 59.90382564 3.16113281 55.59228516 C3.17074036 54.51081207 3.1803479 53.42933899 3.19024658 52.31509399 C3.19449646 51.1515036 3.19874634 49.98791321 3.203125 48.7890625 C3.20882507 47.58816986 3.21452515 46.38727722 3.22039795 45.1499939 C3.22984231 42.60977051 3.23637969 40.0695349 3.24023438 37.52929688 C3.24994518 33.64691797 3.280977 29.7650673 3.3125 25.8828125 C3.31902975 23.41406564 3.32428033 20.945315 3.328125 18.4765625 C3.3404718 17.31702057 3.3528186 16.15747864 3.36553955 14.96279907 C3.3495193 9.15610366 3.26414811 4.89837672 0 0 Z " fill="#C6C6C6" transform="translate(142,155)"/>
<path d="M0 0 C1.41249023 -0.01836914 1.41249023 -0.01836914 2.85351562 -0.03710938 C3.76681641 -0.03904297 4.68011719 -0.04097656 5.62109375 -0.04296875 C6.86330688 -0.04913208 6.86330688 -0.04913208 8.13061523 -0.05541992 C10.5625 0.1875 10.5625 0.1875 15.5625 2.1875 C15.5625 5.8175 15.5625 9.4475 15.5625 13.1875 C14.325 12.878125 13.0875 12.56875 11.8125 12.25 C0.76665853 9.83589314 -9.30923236 8.81987444 -19.25 14.875 C-24.43298785 18.57454979 -27.18714018 22.88981616 -28.4375 29.1875 C-29.26683749 38.58212629 -28.13224401 45.56906999 -22.1875 53 C-13.95001231 59.55254703 -5.08228528 61.88061719 5.3203125 60.80859375 C11.03007712 59.71479547 16.23509666 57.45643725 21.5625 55.1875 C22.5525 54.8575 23.5425 54.5275 24.5625 54.1875 C23.49257107 58.25322995 21.8240897 61.8296387 19.8125 65.5 C19.34328125 66.36238281 18.8740625 67.22476563 18.390625 68.11328125 C15.85263223 70.99292689 14.38182198 70.93719415 10.5625 71.1875 C-3.94792162 71.98689287 -18.96466956 72.74140527 -30.73046875 62.80859375 C-31.29378906 62.27363281 -31.85710938 61.73867187 -32.4375 61.1875 C-32.99050781 60.66285156 -33.54351562 60.13820312 -34.11328125 59.59765625 C-40.41822158 52.94852563 -42.66310398 45.76086157 -42.9375 36.6875 C-42.63122539 26.54981027 -39.3547136 18.61709979 -32.4375 11.1875 C-23.1067913 2.50028846 -12.34474332 0.00841496 0 0 Z " fill="#C7C7C7" transform="translate(89.4375,153.8125)"/>
<path d="M0 0 C1.41249023 -0.01836914 1.41249023 -0.01836914 2.85351562 -0.03710938 C3.76681641 -0.03904297 4.68011719 -0.04097656 5.62109375 -0.04296875 C6.86330688 -0.04913208 6.86330688 -0.04913208 8.13061523 -0.05541992 C10.5625 0.1875 10.5625 0.1875 15.5625 2.1875 C15.5625 5.8175 15.5625 9.4475 15.5625 13.1875 C14.325 12.878125 13.0875 12.56875 11.8125 12.25 C0.76665853 9.83589314 -9.30923236 8.81987444 -19.25 14.875 C-24.43298785 18.57454979 -27.18714018 22.88981616 -28.4375 29.1875 C-29.26683749 38.58212629 -28.13224401 45.56906999 -22.1875 53 C-13.95001231 59.55254703 -5.08228528 61.88061719 5.3203125 60.80859375 C11.03007712 59.71479547 16.23509666 57.45643725 21.5625 55.1875 C22.5525 54.8575 23.5425 54.5275 24.5625 54.1875 C23.49257107 58.25322995 21.8240897 61.8296387 19.8125 65.5 C19.34328125 66.36238281 18.8740625 67.22476563 18.390625 68.11328125 C15.85263223 70.99292689 14.38182198 70.93719415 10.5625 71.1875 C-3.94792162 71.98689287 -18.96466956 72.74140527 -30.73046875 62.80859375 C-31.29378906 62.27363281 -31.85710938 61.73867187 -32.4375 61.1875 C-32.99050781 60.66285156 -33.54351562 60.13820312 -34.11328125 59.59765625 C-40.41822158 52.94852563 -42.66310398 45.76086157 -42.9375 36.6875 C-42.63122539 26.54981027 -39.3547136 18.61709979 -32.4375 11.1875 C-23.1067913 2.50028846 -12.34474332 0.00841496 0 0 Z " fill="#C7C7C7" transform="translate(89.4375,35.8125)"/>
<path d="M0 0 C4.6589553 -0.09982927 9.31727078 -0.17191433 13.97705078 -0.21972656 C15.55789045 -0.23968422 17.13865783 -0.2668606 18.71923828 -0.30175781 C38.80895508 -0.73379473 38.80895508 -0.73379473 45.66577148 5.51904297 C49.91887619 10.40925845 50.35563067 13.88800397 50.2734375 20.17578125 C49.80003436 25.06535943 48.08256503 28.06692603 44.421875 31.46484375 C37.51640264 36.83058241 29.56797368 37.96620599 21 37 C20.34 36.34 19.68 35.68 19 35 C19.66386719 34.84144531 20.32773438 34.68289062 21.01171875 34.51953125 C26.57128596 33.05050692 30.53387123 31.87424358 34 27 C35.94924312 22.71346999 36.18439302 19.80342672 35.125 15.1875 C32.72871974 11.59307961 31.28236223 10.75234653 27.328125 9.41015625 C24.20804914 8.86047846 21.16220513 8.97583468 18 9 C17.94927793 16.45643203 17.91425707 23.91281954 17.89013672 31.36938477 C17.88008099 33.90586001 17.86643465 36.44232368 17.84912109 38.97875977 C17.82485437 42.62519186 17.8135125 46.27147063 17.8046875 49.91796875 C17.79436493 51.05147263 17.78404236 52.1849765 17.77340698 53.35282898 C17.77325592 54.41355118 17.77310486 55.47427338 17.77294922 56.56713867 C17.768508 57.49757492 17.76406677 58.42801117 17.75949097 59.38664246 C18.12870643 63.39851674 19.14544815 66.14544815 22 69 C14.74 69 7.48 69 0 69 C0.99 67.02 1.98 65.04 3 63 C3.44555261 60.14215721 3.44555261 60.14215721 3.38818359 57.18164062 C3.39764008 56.0602771 3.40709656 54.93891357 3.4168396 53.78356934 C3.41076691 52.58655396 3.40469421 51.38953857 3.3984375 50.15625 C3.40130768 48.91379517 3.40417786 47.67134033 3.40713501 46.39123535 C3.40969382 43.09889846 3.39766131 39.80698959 3.38085938 36.51470947 C3.37500492 34.50169308 3.38084009 32.48906904 3.39111328 30.47607422 C3.40966651 26.59844847 3.40739521 22.72140009 3.3984375 18.84375 C3.40754654 17.04822693 3.40754654 17.04822693 3.4168396 15.21643066 C3.36738011 9.35145207 3.31781242 4.94212376 0 0 Z " fill="#C7C7C7" transform="translate(143,37)"/>
<path d="M0 0 C6.62109141 3.54701326 10.53021792 8.22320825 12.75 15.4375 C13.60848759 24.23699778 12.96085491 32.62890488 7.375 39.875 C2.02661399 45.51608375 -5.39480384 47.75962122 -13.00390625 48.0859375 C-16.58769366 48.15193727 -19.50170185 47.87457454 -23 47 C-23 30.83 -23 14.66 -23 -2 C-15.39095239 -4.5363492 -7.36388175 -2.63278568 0 0 Z " fill="#FEFEFE" transform="translate(182,167)"/>
<path d="M0 0 C1.01964844 -0.01675781 2.03929688 -0.03351563 3.08984375 -0.05078125 C6.46877814 0.36215029 8.33634059 1.30811446 11.0625 3.3125 C12.67164863 6.53079725 12.52571846 9.82205106 12.0625 13.3125 C9.08466373 19.15364038 4.19984138 23.84219265 -1.9375 26.3125 C-4.77734375 26.61328125 -4.77734375 26.61328125 -7.875 26.625 C-8.89464844 26.64175781 -9.91429688 26.65851563 -10.96484375 26.67578125 C-14.34377814 26.26284971 -16.21134059 25.31688554 -18.9375 23.3125 C-20.54664863 20.09420275 -20.40071846 16.80294894 -19.9375 13.3125 C-15.85058765 5.29586423 -9.07083631 0.0343159 0 0 Z " fill="#C8C8C8" transform="translate(116.9375,174.6875)"/>
<path d="M0 0 C1.01964844 -0.01675781 2.03929688 -0.03351562 3.08984375 -0.05078125 C6.46877814 0.36215029 8.33634059 1.30811446 11.0625 3.3125 C12.67164863 6.53079725 12.52571846 9.82205106 12.0625 13.3125 C9.08466373 19.15364038 4.19984138 23.84219265 -1.9375 26.3125 C-4.77734375 26.61328125 -4.77734375 26.61328125 -7.875 26.625 C-8.89464844 26.64175781 -9.91429688 26.65851563 -10.96484375 26.67578125 C-14.34377814 26.26284971 -16.21134059 25.31688554 -18.9375 23.3125 C-20.54664863 20.09420275 -20.40071846 16.80294894 -19.9375 13.3125 C-15.85058765 5.29586423 -9.07083631 0.0343159 0 0 Z " fill="#C8C8C8" transform="translate(119.9375,57.6875)"/>
<path d="M0 0 C2.64484302 1.95392729 3.82826601 3.06255299 4.42578125 6.32421875 C4.38839844 7.10410156 4.35101563 7.88398438 4.3125 8.6875 C4.28800781 9.47511719 4.26351562 10.26273438 4.23828125 11.07421875 C4 13 4 13 3 14 C1.58429877 14.08651611 0.164405 14.10704904 -1.25390625 14.09765625 C-2.10791016 14.09443359 -2.96191406 14.09121094 -3.84179688 14.08789062 C-4.73962891 14.07951172 -5.63746094 14.07113281 -6.5625 14.0625 C-7.46419922 14.05798828 -8.36589844 14.05347656 -9.29492188 14.04882812 C-11.53001314 14.03700225 -13.76497437 14.0205222 -16 14 C-15.15728119 16.48988131 -15.15728119 16.48988131 -14 19 C-9.96508944 20.61396422 -6.18872155 19.73918616 -2 19 C-2 22 -2 22 -4.09375 24.15625 C-7.52294817 26.33176282 -9.47042399 26.53765959 -13.5 26.5 C-14.6034375 26.5103125 -15.706875 26.520625 -16.84375 26.53125 C-20.61762556 25.89604322 -22.28087339 24.64031135 -25 22 C-26.79369796 18.41260407 -26.0735557 14.76644121 -25 11 C-19.1524777 1.65685143 -10.89468222 -1.92705382 0 0 Z " fill="#C9C9C9" transform="translate(240,176)"/>
<path d="M0 0 C3.63 0 7.26 0 11 0 C11.66 3.96 12.32 7.92 13 12 C14.155 10.576875 15.31 9.15375 16.5 7.6875 C17.1496875 6.88699219 17.799375 6.08648437 18.46875 5.26171875 C20.28031338 3.04118537 20.28031338 3.04118537 20 0 C23.3 0 26.6 0 30 0 C28.63733356 4.03805866 26.8590849 6.54368118 23.9375 9.625 C20.64035249 13.18105813 17.48512151 16.79001018 14.4375 20.5625 C11.56289696 24.10047297 8.6706691 27.61528237 5.6875 31.0625 C5.07261719 31.77535156 4.45773438 32.48820312 3.82421875 33.22265625 C1.04157196 35.93380034 -0.89917239 36.92312656 -4.796875 37.1953125 C-6.25867188 37.16050781 -6.25867188 37.16050781 -7.75 37.125 C-9.22726563 37.09792969 -9.22726563 37.09792969 -10.734375 37.0703125 C-11.48203125 37.04710937 -12.2296875 37.02390625 -13 37 C-11.63016497 33.83884224 -11.0109362 33.0072908 -8 31 C-6.865625 30.896875 -5.73125 30.79375 -4.5625 30.6875 C-0.9238311 30.32239793 -0.9238311 30.32239793 1.23925781 27.8293457 C3.37004694 24.40536966 3.30031245 22.98431888 2.734375 19.04296875 C2.51201172 17.37524414 2.51201172 17.37524414 2.28515625 15.67382812 C2.10855469 14.52333984 1.93195313 13.37285156 1.75 12.1875 C1.58886719 11.01767578 1.42773438 9.84785156 1.26171875 8.64257812 C0.86152338 5.75881739 0.43343633 2.87895211 0 0 Z " fill="#C8C8C8" transform="translate(201,53)"/>
<path d="M0 0 C1.15777936 3.47333809 0.98110669 5.06087844 -0.125 8.625 C-2.11703087 12.21065557 -3.15365803 13.62630644 -7 15 C-9.75 14.4375 -9.75 14.4375 -12 13 C-13 11.3125 -13 11.3125 -13 9 C-11.76887586 5.10144022 -10.77572904 2.65324551 -7.625 0 C-4.58803197 -1.1569402 -3.06144336 -0.96216791 0 0 Z " fill="#FEFEFE" transform="translate(119,181)"/>
<path d="M0 0 C1.15777936 3.47333809 0.98110669 5.06087844 -0.125 8.625 C-2.11703087 12.21065557 -3.15365803 13.62630644 -7 15 C-9.75 14.4375 -9.75 14.4375 -12 13 C-13 11.3125 -13 11.3125 -13 9 C-11.76887586 5.10144022 -10.77572904 2.65324551 -7.625 0 C-4.58803197 -1.1569402 -3.06144336 -0.96216791 0 0 Z " fill="#FEFEFE" transform="translate(122,64)"/>
<path d="M0 0 C0 0.66 0 1.32 0 2 C-3.3 2 -6.6 2 -10 2 C-6.82020798 -2.76968803 -4.78499148 -2.1985096 0 0 Z " fill="#FFFFFF" transform="translate(236,183)"/>
</svg>
